<svg width="114" height="40" viewBox="0 0 114 40" fill="none" xmlns="http://www.w3.org/2000/svg">
<path d="M11.8748 27.1269C9.63575 27.1269 7.68835 26.723 6.0326 25.9153C4.37684 25.0888 3.1068 23.9242 2.22248 22.4214C1.33816 20.9186 0.895996 19.1717 0.895996 17.1806C0.895996 14.4192 1.41342 11.9679 2.44827 9.82646C3.50193 7.68503 4.92249 6.03201 6.70995 4.86737C8.49741 3.68396 10.4824 3.09225 12.665 3.09225C14.6971 3.09225 16.2399 3.61821 17.2936 4.67014C18.3473 5.70328 18.8741 7.07454 18.8741 8.78392C18.8741 9.92977 18.6671 10.8502 18.2532 11.5452C17.8581 12.2403 17.2842 12.5878 16.5316 12.5878C16.0048 12.5878 15.5908 12.4657 15.2898 12.2215C14.9887 11.9773 14.8382 11.6204 14.8382 11.1508C14.8382 10.9817 14.8758 10.6718 14.9511 10.2209C15.064 9.6574 15.1204 9.20657 15.1204 8.86845C15.1204 7.15907 14.2079 6.30438 12.3828 6.30438C11.141 6.30438 9.95561 6.70825 8.82669 7.51597C7.69776 8.3237 6.78521 9.51652 6.08904 11.0944C5.39288 12.6535 5.04479 14.5132 5.04479 16.6734C5.04479 18.9275 5.67511 20.6745 6.93574 21.9142C8.19637 23.1352 10.0591 23.7457 12.5239 23.7457C13.7469 23.7457 14.9793 23.5954 16.2211 23.2949C17.4818 22.9755 18.8741 22.4965 20.3982 21.8579C20.6804 21.7452 20.9156 21.6888 21.1037 21.6888C21.4048 21.6888 21.6306 21.8015 21.7811 22.0269C21.9316 22.2523 22.0069 22.5435 22.0069 22.9004C22.0069 24.0463 21.386 24.8915 20.1441 25.4363C18.8083 26.0186 17.4159 26.4507 15.9671 26.7324C14.5372 26.9954 13.173 27.1269 11.8748 27.1269Z" fill="#212B36"/>
<path d="M33.9108 18.3358C34.1554 18.3358 34.3436 18.4579 34.4753 18.7021C34.607 18.9463 34.6729 19.2562 34.6729 19.6319C34.6729 20.5336 34.4 21.0689 33.8544 21.238C32.7255 21.6325 31.4837 21.8579 30.1289 21.9142C29.7714 23.4921 29.0659 24.7601 28.0122 25.7181C26.9585 26.6573 25.7638 27.1269 24.4279 27.1269C23.299 27.1269 22.33 26.8545 21.5209 26.3098C20.7307 25.765 20.1286 25.0418 19.7146 24.1402C19.3007 23.2385 19.0937 22.2617 19.0937 21.2098C19.0937 19.7822 19.3665 18.5142 19.9122 17.406C20.4578 16.2789 21.2104 15.4054 22.17 14.7855C23.1296 14.1469 24.1927 13.8275 25.3592 13.8275C26.7892 13.8275 27.9369 14.3253 28.8025 15.3209C29.6868 16.2977 30.2042 17.5093 30.3547 18.9557C31.2391 18.8993 32.2927 18.7115 33.5157 18.3921C33.6662 18.3546 33.7979 18.3358 33.9108 18.3358ZM24.6537 24.1402C25.2558 24.1402 25.7732 23.896 26.2059 23.4076C26.6575 22.9192 26.9585 22.2148 27.1091 21.2943C26.5258 20.8999 26.0742 20.3833 25.7544 19.7446C25.4533 19.106 25.3028 18.4297 25.3028 17.7159C25.3028 17.4154 25.331 17.1148 25.3875 16.8143H25.2463C24.4937 16.8143 23.8634 17.1806 23.3554 17.9131C22.8662 18.6269 22.6216 19.6413 22.6216 20.9562C22.6216 21.9894 22.8192 22.7783 23.2143 23.3231C23.6282 23.8678 24.108 24.1402 24.6537 24.1402Z" fill="#212B36"/>
<path d="M35.722 27.1269C34.5554 27.1269 33.6241 26.7042 32.9279 25.8589C32.2317 25.0136 31.8836 23.9054 31.8836 22.5341C31.8836 21.0314 32.2317 19.6131 32.9279 18.2794C33.6241 16.927 34.546 15.8469 35.6937 15.0391C36.8603 14.2126 38.0927 13.7994 39.391 13.7994C39.8049 13.7994 40.0777 13.8839 40.2094 14.0529C40.36 14.2032 40.4823 14.485 40.5763 14.8982C40.9715 14.8231 41.3854 14.7855 41.8182 14.7855C42.7401 14.7855 43.2011 15.1143 43.2011 15.7717C43.2011 16.1662 43.06 17.1054 42.7777 18.5894C42.345 20.7496 42.1286 22.2523 42.1286 23.0976C42.1286 23.3794 42.1945 23.6048 42.3262 23.7739C42.4767 23.9429 42.6648 24.0275 42.8906 24.0275C43.2481 24.0275 43.6809 23.8021 44.1889 23.3512C44.6969 22.8816 45.3837 22.1302 46.2492 21.0971C46.475 20.8341 46.729 20.7026 47.0112 20.7026C47.2558 20.7026 47.444 20.8153 47.5757 21.0407C47.7262 21.2662 47.8014 21.5761 47.8014 21.9706C47.8014 22.722 47.6227 23.3043 47.2652 23.7175C46.4938 24.6755 45.6753 25.4833 44.8098 26.1407C43.9443 26.7982 43.107 27.1269 42.2979 27.1269C41.677 27.1269 41.1032 26.9203 40.5763 26.507C40.0683 26.075 39.6826 25.4926 39.4192 24.7601C38.4408 26.3379 37.2084 27.1269 35.722 27.1269ZM36.738 24.2811C37.1519 24.2811 37.5471 24.0369 37.9234 23.5485C38.2997 23.0601 38.5725 22.412 38.7418 21.6043L39.7861 16.4198C38.9958 16.4386 38.262 16.7391 37.5847 17.3214C36.9262 17.885 36.3993 18.6363 36.0042 19.5756C35.6091 20.5148 35.4115 21.5104 35.4115 22.5623C35.4115 23.1446 35.5244 23.5766 35.7502 23.8584C35.9948 24.1402 36.3241 24.2811 36.738 24.2811Z" fill="#212B36"/>
<path d="M50.8983 27.1269C49.0544 27.1269 47.615 26.6103 46.5801 25.5772C45.5641 24.5253 45.0561 23.1446 45.0561 21.4352C45.0561 19.9137 45.3571 18.58 45.9592 17.4341C46.5613 16.2883 47.3422 15.4054 48.3017 14.7855C49.2613 14.1657 50.268 13.8557 51.3216 13.8557C52.3565 13.8557 53.1561 14.1657 53.7206 14.7855C54.3039 15.3866 54.5955 16.1662 54.5955 17.1242C54.5955 17.9131 54.4167 18.58 54.0593 19.1247C53.7206 19.6695 53.269 19.9419 52.7045 19.9419C52.3471 19.9419 52.0554 19.8573 51.8296 19.6883C51.6227 19.5192 51.5192 19.2844 51.5192 18.9839C51.5192 18.8524 51.538 18.7021 51.5756 18.533C51.6133 18.364 51.6415 18.2419 51.6603 18.1667C51.7544 17.885 51.8014 17.622 51.8014 17.3778C51.8014 17.1336 51.7356 16.9457 51.6038 16.8143C51.491 16.6828 51.3216 16.617 51.0958 16.617C50.6631 16.617 50.2585 16.8143 49.8822 17.2087C49.5059 17.5844 49.2049 18.101 48.9791 18.7584C48.7533 19.4159 48.6404 20.1391 48.6404 20.928C48.6404 23.107 49.5906 24.1965 51.491 24.1965C52.2624 24.1965 53.0903 23.9429 53.9746 23.4358C54.8777 22.9098 55.7621 22.1302 56.6276 21.0971C56.8533 20.8341 57.1073 20.7026 57.3896 20.7026C57.6342 20.7026 57.8223 20.8153 57.954 21.0407C58.1046 21.2662 58.1798 21.5761 58.1798 21.9706C58.1798 22.6844 58.0011 23.2667 57.6436 23.7175C56.7593 24.807 55.6962 25.6523 54.4544 26.2534C53.2314 26.8357 52.046 27.1269 50.8983 27.1269Z" fill="#212B36"/>
<path d="M65.8894 13.8557C66.4915 13.8557 66.943 14.0154 67.2441 14.3347C67.5639 14.6353 67.7239 15.0861 67.7239 15.6872C67.7239 16.1756 67.6204 17.096 67.4134 18.4485C67.2253 19.5943 67.0747 20.6838 66.9618 21.717C66.8489 22.7313 66.7925 23.8678 66.7925 25.1264C66.7925 25.8402 66.642 26.3567 66.3409 26.6761C66.0587 26.9766 65.5883 27.1269 64.9298 27.1269C64.3089 27.1269 63.8573 26.9672 63.5751 26.6479C63.2928 26.3286 63.1517 25.8496 63.1517 25.2109C63.1517 24.4595 63.2834 23.2197 63.5468 21.4916C63.7726 19.9888 63.8855 19.0308 63.8855 18.6176C63.8855 18.317 63.782 18.1667 63.5751 18.1667C63.3305 18.1667 62.9824 18.4861 62.5308 19.1247C62.0792 19.7446 61.6277 20.5711 61.1761 21.6043C60.7245 22.6374 60.3576 23.7269 60.0754 24.8728C59.8684 25.7556 59.6238 26.3567 59.3416 26.6761C59.0782 26.9766 58.6548 27.1269 58.0716 27.1269C57.4883 27.1269 57.0555 26.9203 56.7733 26.507C56.5099 26.075 56.3311 25.4175 56.2371 24.5346C56.143 23.6518 56.0959 22.3557 56.0959 20.6463C56.0959 17.7535 56.3876 14.7386 56.9709 11.6016C57.573 8.46459 58.4479 5.83477 59.5956 3.71213C60.7622 1.57071 62.1545 0.5 63.7726 0.5C64.6381 0.5 65.3343 0.875688 65.8611 1.62706C66.4068 2.35966 66.6796 3.31766 66.6796 4.50108C66.6796 6.3983 66.1246 8.37067 65.0144 10.4182C63.9043 12.4469 62.0981 14.8231 59.5956 17.5468C59.5392 18.5236 59.5109 19.5286 59.5109 20.5617C60.1318 18.9651 60.8186 17.6689 61.5712 16.6734C62.3427 15.659 63.0953 14.9358 63.8291 14.5038C64.5817 14.0717 65.2685 13.8557 65.8894 13.8557ZM63.1799 3.28948C62.8413 3.28948 62.465 3.77788 62.051 4.75467C61.6371 5.71267 61.2325 7.01819 60.8374 8.67122C60.4611 10.3055 60.1507 12.09 59.9061 14.0248C61.0726 12.6535 62.0322 11.1601 62.7848 9.54469C63.5562 7.92923 63.942 6.46405 63.942 5.14914C63.942 4.54804 63.8761 4.08782 63.7444 3.76849C63.6127 3.44915 63.4245 3.28948 63.1799 3.28948Z" fill="#212B36"/>
<path d="M89.2544 23.9949C89.3673 23.9573 89.5366 23.9385 89.7624 23.9385C90.4021 23.9385 90.722 24.3518 90.722 25.1783C90.722 25.6291 90.6185 26.0142 90.4115 26.3335C90.2234 26.6341 89.9223 26.8219 89.5084 26.8971C87.7962 27.2164 86.1122 27.5733 84.4565 27.9678L84.3718 28.644C83.845 32.3445 82.7913 35.0777 81.2108 36.8434C79.6491 38.6279 77.6923 39.5202 75.3404 39.5202C73.7787 39.5202 72.5651 39.1351 71.6996 38.3649C70.8529 37.6136 70.4296 36.6462 70.4296 35.4627C70.4296 33.4904 71.3139 31.734 73.0826 30.1937C74.8512 28.6534 77.5324 27.2915 81.1261 26.1081L81.6906 22.1352C81.7659 21.6844 81.8599 21.0833 81.9728 20.3319C81.0885 22.6612 79.9596 24.3987 78.5861 25.5446C77.2125 26.6904 75.6791 27.2633 73.9857 27.2633C72.3676 27.2633 71.1352 26.775 70.2885 25.7982C69.4418 24.8026 69.0184 23.5252 69.0184 21.9661C69.0184 21.2711 69.0937 20.5104 69.2442 19.6838C69.3948 18.8385 69.6299 17.7021 69.9498 16.2745C70.232 14.9783 70.439 13.9452 70.5707 13.175C70.7212 12.4049 70.7965 11.7193 70.7965 11.1182C70.7965 10.2165 70.4484 9.76568 69.7522 9.76568C69.2066 9.76568 68.5575 10.038 67.8049 10.5828C67.0711 11.1088 66.2902 11.9259 65.4623 13.0342C65.1989 13.3911 64.9073 13.5695 64.5874 13.5695C64.324 13.5695 64.0888 13.4474 63.8818 13.2032C63.6937 12.9402 63.5996 12.6491 63.5996 12.3297C63.5996 11.7474 63.863 11.09 64.3899 10.3574C66.309 7.72757 68.5575 6.41266 71.1352 6.41266C72.2829 6.41266 73.1766 6.76017 73.8164 7.45519C74.4749 8.15022 74.8042 9.17397 74.8042 10.5264C74.8042 11.5032 74.7101 12.5082 74.5219 13.5413C74.3526 14.5557 74.0892 15.8518 73.7317 17.4297C73.5059 18.3689 73.3366 19.1297 73.2237 19.712C73.1108 20.2755 73.0543 20.7452 73.0543 21.1208C73.0543 22.0789 73.2237 22.7645 73.5624 23.1777C73.901 23.591 74.4937 23.7976 75.3404 23.7976C76.3564 23.7976 77.3913 23.2435 78.445 22.1352C79.5174 21.0081 80.477 19.3082 81.3237 17.0352C82.1892 14.7623 82.8101 11.9822 83.1864 8.69496C83.2805 7.86845 83.4969 7.28613 83.8356 6.94801C84.1742 6.59111 84.6634 6.41266 85.3032 6.41266C86.6202 6.41266 87.2788 7.07011 87.2788 8.38502C87.2788 8.61043 87.2694 8.78889 87.2506 8.92038C86.8554 11.7193 86.4885 14.2458 86.1499 16.4999C85.9617 17.8524 85.7547 19.2424 85.529 20.67C85.322 22.0976 85.115 23.544 84.908 25.0092C86.2816 24.6335 87.7304 24.2954 89.2544 23.9949ZM80.7028 29.0667C76.1495 30.6445 73.8728 32.5605 73.8728 34.8147C73.8728 35.3406 74.0327 35.7727 74.3526 36.1108C74.6913 36.4677 75.1617 36.6462 75.7638 36.6462C78.3791 36.6462 80.016 34.1854 80.6746 29.2639L80.7028 29.0667Z" fill="#FA541C"/>
<path d="M103.382 21.6562C103.627 21.6562 103.815 21.7783 103.947 22.0225C104.079 22.2667 104.145 22.5766 104.145 22.9523C104.145 23.854 103.872 24.3893 103.326 24.5584C102.197 24.9529 100.955 25.1783 99.6006 25.2346C99.2431 26.8125 98.5375 28.0805 97.4839 29.0385C96.4302 29.9777 95.2354 30.4473 93.8995 30.4473C92.7706 30.4473 91.8016 30.1749 90.9925 29.6302C90.2023 29.0854 89.6002 28.3622 89.1863 27.4606C88.7723 26.5589 88.5654 25.5821 88.5654 24.5302C88.5654 23.1026 88.8382 21.8347 89.3838 20.7264C89.9295 19.5993 90.6821 18.7258 91.6417 18.106C92.6013 17.4673 93.6643 17.1479 94.8309 17.1479C96.2609 17.1479 97.4086 17.6457 98.2741 18.6413C99.1584 19.6181 99.6759 20.8297 99.8264 22.2761C100.711 22.2197 101.764 22.0319 102.987 21.7126C103.138 21.675 103.27 21.6562 103.382 21.6562ZM94.1253 27.4606C94.7274 27.4606 95.2448 27.2164 95.6776 26.728C96.1291 26.2396 96.4302 25.5352 96.5807 24.6147C95.9974 24.2203 95.5459 23.7037 95.226 23.065C94.925 22.4264 94.7744 21.7501 94.7744 21.0363C94.7744 20.7358 94.8027 20.4352 94.8591 20.1347H94.718C93.9654 20.1347 93.3351 20.501 92.827 21.2336C92.3378 21.9474 92.0932 22.9617 92.0932 24.2766C92.0932 25.3098 92.2908 26.0987 92.6859 26.6435C93.0999 27.1882 93.5797 27.4606 94.1253 27.4606Z" fill="#FA541C"/>
<path d="M104.657 30.4473C103.773 30.4473 103.058 30.0904 102.512 29.3766C101.986 28.644 101.722 27.639 101.722 26.3617C101.722 24.9529 101.816 23.6661 102.004 22.5015C102.193 21.3181 102.503 20.0689 102.936 18.754C103.124 18.1905 103.387 17.7866 103.726 17.5424C104.065 17.2982 104.601 17.1761 105.335 17.1761C105.749 17.1761 106.031 17.2419 106.181 17.3734C106.351 17.5048 106.435 17.7021 106.435 17.9651C106.435 18.1153 106.332 18.6225 106.125 19.4866C105.937 20.1816 105.786 20.8109 105.673 21.3744C105.297 23.3468 105.109 24.6617 105.109 25.3192C105.109 25.7136 105.156 25.9954 105.25 26.1645C105.344 26.3147 105.495 26.3899 105.702 26.3899C105.984 26.3899 106.341 26.1081 106.774 25.5446C107.207 24.9623 107.658 24.0982 108.129 22.9523C108.618 21.7877 109.079 20.3883 109.512 18.754C109.662 18.1905 109.888 17.7866 110.189 17.5424C110.509 17.2982 110.979 17.1761 111.6 17.1761C112.014 17.1761 112.306 17.2888 112.475 17.5142C112.663 17.7209 112.757 18.0402 112.757 18.4722C112.757 18.9419 112.72 19.4678 112.644 20.0501C112.569 20.6137 112.485 21.196 112.39 21.7971C112.202 22.9993 112.052 24.0982 111.939 25.0937C111.826 26.0705 111.77 27.1882 111.77 28.4468C111.77 29.1606 111.619 29.6771 111.318 29.9965C111.036 30.297 110.565 30.4473 109.907 30.4473C109.211 30.4473 108.721 30.2689 108.439 29.9119C108.176 29.5363 108.044 28.8225 108.044 27.7705C108.044 27.5639 108.063 27.1037 108.101 26.3899C107.781 27.7048 107.301 28.7097 106.661 29.4048C106.04 30.0998 105.372 30.4473 104.657 30.4473Z" fill="#FA541C"/>
</svg>
