<svg width="255" height="88" viewBox="0 0 255 88" fill="none" xmlns="http://www.w3.org/2000/svg">
<path d="M26.507 59.535C21.509 59.535 17.162 58.632 13.466 56.826C9.77 54.978 6.935 52.374 4.961 49.014C2.987 45.654 2 41.748 2 37.296C2 31.122 3.155 25.641 5.465 20.853C7.817 16.065 10.988 12.369 14.978 9.765C18.968 7.119 23.399 5.796 28.271 5.796C32.807 5.796 36.251 6.972 38.603 9.324C40.955 11.634 42.131 14.7 42.131 18.522C42.131 21.084 41.669 23.142 40.745 24.696C39.863 26.25 38.582 27.027 36.902 27.027C35.726 27.027 34.802 26.754 34.13 26.208C33.458 25.662 33.122 24.864 33.122 23.814C33.122 23.436 33.206 22.743 33.374 21.735C33.626 20.475 33.752 19.467 33.752 18.711C33.752 14.889 31.715 12.978 27.641 12.978C24.869 12.978 22.223 13.881 19.703 15.687C17.183 17.493 15.146 20.16 13.592 23.688C12.038 27.174 11.261 31.332 11.261 36.162C11.261 41.202 12.668 45.108 15.482 47.88C18.296 50.61 22.454 51.975 27.956 51.975C30.686 51.975 33.437 51.639 36.209 50.967C39.023 50.253 42.131 49.182 45.533 47.754C46.163 47.502 46.688 47.376 47.108 47.376C47.78 47.376 48.284 47.628 48.62 48.132C48.956 48.636 49.124 49.287 49.124 50.085C49.124 52.647 47.738 54.537 44.966 55.755C41.984 57.057 38.876 58.023 35.642 58.653C32.45 59.241 29.405 59.535 26.507 59.535Z" fill="white"/>
<path d="M75.6962 39.879C76.2422 39.879 76.6622 40.152 76.9562 40.698C77.2502 41.244 77.3972 41.937 77.3972 42.777C77.3972 44.793 76.7882 45.99 75.5702 46.368C73.0502 47.25 70.2782 47.754 67.2542 47.88C66.4562 51.408 64.8812 54.243 62.5292 56.385C60.1772 58.485 57.5102 59.535 54.5282 59.535C52.0082 59.535 49.8452 58.926 48.0392 57.708C46.2752 56.49 44.9312 54.873 44.0072 52.857C43.0832 50.841 42.6212 48.657 42.6212 46.305C42.6212 43.113 43.2302 40.278 44.4482 37.8C45.6662 35.28 47.3462 33.327 49.4882 31.941C51.6302 30.513 54.0032 29.799 56.6072 29.799C59.7992 29.799 62.3612 30.912 64.2932 33.138C66.2672 35.322 67.4222 38.031 67.7582 41.265C69.7322 41.139 72.0842 40.719 74.8142 40.005C75.1502 39.921 75.4442 39.879 75.6962 39.879ZM55.0322 52.857C56.3762 52.857 57.5312 52.311 58.4972 51.219C59.5052 50.127 60.1772 48.552 60.5132 46.494C59.2112 45.612 58.2032 44.457 57.4892 43.029C56.8172 41.601 56.4812 40.089 56.4812 38.493C56.4812 37.821 56.5442 37.149 56.6702 36.477H56.3552C54.6752 36.477 53.2682 37.296 52.1342 38.934C51.0422 40.53 50.4962 42.798 50.4962 45.738C50.4962 48.048 50.9372 49.812 51.8192 51.03C52.7432 52.248 53.8142 52.857 55.0322 52.857Z" fill="white"/>
<path d="M79.7391 59.535C77.1351 59.535 75.0561 58.59 73.5021 56.7C71.9481 54.81 71.1711 52.332 71.1711 49.266C71.1711 45.906 71.9481 42.735 73.5021 39.753C75.0561 36.729 77.1141 34.314 79.676 32.508C82.2801 30.66 85.0311 29.736 87.9291 29.736C88.8531 29.736 89.4621 29.925 89.7561 30.303C90.092 30.639 90.3651 31.269 90.5751 32.193C91.457 32.025 92.3811 31.941 93.3471 31.941C95.4051 31.941 96.4341 32.676 96.4341 34.146C96.4341 35.028 96.119 37.128 95.4891 40.446C94.523 45.276 94.0401 48.636 94.0401 50.526C94.0401 51.156 94.187 51.66 94.481 52.038C94.817 52.416 95.2371 52.605 95.7411 52.605C96.5391 52.605 97.5051 52.101 98.6391 51.093C99.7731 50.043 101.306 48.363 103.238 46.053C103.742 45.465 104.309 45.171 104.939 45.171C105.485 45.171 105.905 45.423 106.199 45.927C106.535 46.431 106.703 47.124 106.703 48.006C106.703 49.686 106.304 50.988 105.506 51.912C103.784 54.054 101.957 55.86 100.025 57.33C98.0931 58.8 96.2241 59.535 94.4181 59.535C93.0321 59.535 91.7511 59.073 90.5751 58.149C89.441 57.183 88.58 55.881 87.9921 54.243C85.8081 57.771 83.0571 59.535 79.7391 59.535ZM82.007 53.172C82.9311 53.172 83.8131 52.626 84.6531 51.534C85.4931 50.442 86.1021 48.993 86.48 47.187L88.8111 35.595C87.0471 35.637 85.409 36.309 83.897 37.611C82.427 38.871 81.251 40.551 80.369 42.651C79.4871 44.751 79.0461 46.977 79.0461 49.329C79.0461 50.631 79.298 51.597 79.802 52.227C80.348 52.857 81.083 53.172 82.007 53.172Z" fill="white"/>
<path d="M113.616 59.535C109.5 59.535 106.287 58.38 103.977 56.07C101.709 53.718 100.575 50.631 100.575 46.809C100.575 43.407 101.247 40.425 102.591 37.863C103.935 35.301 105.678 33.327 107.82 31.941C109.962 30.555 112.209 29.862 114.561 29.862C116.871 29.862 118.656 30.555 119.916 31.941C121.218 33.285 121.869 35.028 121.869 37.17C121.869 38.934 121.47 40.425 120.672 41.643C119.916 42.861 118.908 43.47 117.648 43.47C116.85 43.47 116.199 43.281 115.695 42.903C115.233 42.525 115.002 42 115.002 41.328C115.002 41.034 115.044 40.698 115.128 40.32C115.212 39.942 115.275 39.669 115.317 39.501C115.527 38.871 115.632 38.283 115.632 37.737C115.632 37.191 115.485 36.771 115.191 36.477C114.939 36.183 114.561 36.036 114.057 36.036C113.091 36.036 112.188 36.477 111.348 37.359C110.508 38.199 109.836 39.354 109.332 40.824C108.828 42.294 108.576 43.911 108.576 45.675C108.576 50.547 110.697 52.983 114.939 52.983C116.661 52.983 118.509 52.416 120.483 51.282C122.499 50.106 124.473 48.363 126.405 46.053C126.909 45.465 127.476 45.171 128.106 45.171C128.652 45.171 129.072 45.423 129.366 45.927C129.702 46.431 129.87 47.124 129.87 48.006C129.87 49.602 129.471 50.904 128.673 51.912C126.699 54.348 124.326 56.238 121.554 57.582C118.824 58.884 116.178 59.535 113.616 59.535Z" fill="white"/>
<path d="M147.079 29.862C148.423 29.862 149.431 30.219 150.103 30.933C150.817 31.605 151.174 32.613 151.174 33.957C151.174 35.049 150.943 37.107 150.481 40.131C150.061 42.693 149.725 45.129 149.473 47.439C149.221 49.707 149.095 52.248 149.095 55.062C149.095 56.658 148.759 57.813 148.087 58.527C147.457 59.199 146.407 59.535 144.937 59.535C143.551 59.535 142.543 59.178 141.913 58.464C141.283 57.75 140.968 56.679 140.968 55.251C140.968 53.571 141.262 50.799 141.85 46.935C142.354 43.575 142.606 41.433 142.606 40.509C142.606 39.837 142.375 39.501 141.913 39.501C141.367 39.501 140.59 40.215 139.582 41.643C138.574 43.029 137.566 44.877 136.558 47.187C135.55 49.497 134.731 51.933 134.101 54.495C133.639 56.469 133.093 57.813 132.463 58.527C131.875 59.199 130.93 59.535 129.628 59.535C128.326 59.535 127.36 59.073 126.73 58.149C126.142 57.183 125.743 55.713 125.533 53.739C125.323 51.765 125.218 48.867 125.218 45.045C125.218 38.577 125.869 31.836 127.171 24.822C128.515 17.808 130.468 11.928 133.03 7.182C135.634 2.394 138.742 0 142.354 0C144.286 0 145.84 0.84 147.016 2.52C148.234 4.158 148.843 6.3 148.843 8.946C148.843 13.188 147.604 17.598 145.126 22.176C142.648 26.712 138.616 32.025 133.03 38.115C132.904 40.299 132.841 42.546 132.841 44.856C134.227 41.286 135.76 38.388 137.44 36.162C139.162 33.894 140.842 32.277 142.48 31.311C144.16 30.345 145.693 29.862 147.079 29.862ZM141.031 6.237C140.275 6.237 139.435 7.329 138.511 9.513C137.587 11.655 136.684 14.574 135.802 18.27C134.962 21.924 134.269 25.914 133.723 30.24C136.327 27.174 138.469 23.835 140.149 20.223C141.871 16.611 142.732 13.335 142.732 10.395C142.732 9.051 142.585 8.022 142.291 7.308C141.997 6.594 141.577 6.237 141.031 6.237Z" fill="white"/>
<path d="M199.235 52.532C199.487 52.448 199.865 52.406 200.369 52.406C201.797 52.406 202.511 53.33 202.511 55.178C202.511 56.186 202.28 57.047 201.818 57.761C201.398 58.433 200.726 58.853 199.802 59.021C195.98 59.735 192.221 60.533 188.525 61.415L188.336 62.927C187.16 71.201 184.808 77.312 181.28 81.26C177.794 85.25 173.426 87.245 168.176 87.245C164.69 87.245 161.981 86.384 160.049 84.662C158.159 82.982 157.214 80.819 157.214 78.173C157.214 73.763 159.188 69.836 163.136 66.392C167.084 62.948 173.069 59.903 181.091 57.257L182.351 48.374C182.519 47.366 182.729 46.022 182.981 44.342C181.007 49.55 178.487 53.435 175.421 55.997C172.355 58.559 168.932 59.84 165.152 59.84C161.54 59.84 158.789 58.748 156.899 56.564C155.009 54.338 154.064 51.482 154.064 47.996C154.064 46.442 154.232 44.741 154.568 42.893C154.904 41.003 155.429 38.462 156.143 35.27C156.773 32.372 157.235 30.062 157.529 28.34C157.865 26.618 158.033 25.085 158.033 23.741C158.033 21.725 157.256 20.717 155.702 20.717C154.484 20.717 153.035 21.326 151.355 22.544C149.717 23.72 147.974 25.547 146.126 28.025C145.538 28.823 144.887 29.222 144.173 29.222C143.585 29.222 143.06 28.949 142.598 28.403C142.178 27.815 141.968 27.164 141.968 26.45C141.968 25.148 142.556 23.678 143.732 22.04C148.016 16.16 153.035 13.22 158.789 13.22C161.351 13.22 163.346 13.997 164.774 15.551C166.244 17.105 166.979 19.394 166.979 22.418C166.979 24.602 166.769 26.849 166.349 29.159C165.971 31.427 165.383 34.325 164.585 37.853C164.081 39.953 163.703 41.654 163.451 42.956C163.199 44.216 163.073 45.266 163.073 46.106C163.073 48.248 163.451 49.781 164.207 50.705C164.963 51.629 166.286 52.091 168.176 52.091C170.444 52.091 172.754 50.852 175.106 48.374C177.5 45.854 179.642 42.053 181.532 36.971C183.464 31.889 184.85 25.673 185.69 18.323C185.9 16.475 186.383 15.173 187.139 14.417C187.895 13.619 188.987 13.22 190.415 13.22C193.355 13.22 194.825 14.69 194.825 17.63C194.825 18.134 194.804 18.533 194.762 18.827C193.88 25.085 193.061 30.734 192.305 35.774C191.885 38.798 191.423 41.906 190.919 45.098C190.457 48.29 189.995 51.524 189.533 54.8C192.599 53.96 195.833 53.204 199.235 52.532ZM180.146 63.872C169.982 67.4 164.9 71.684 164.9 76.724C164.9 77.9 165.257 78.866 165.971 79.622C166.727 80.42 167.777 80.819 169.121 80.819C174.959 80.819 178.613 75.317 180.083 64.313L180.146 63.872Z" fill="#FA541C"/>
<path d="M230.772 47.303C231.318 47.303 231.738 47.576 232.032 48.122C232.326 48.668 232.473 49.361 232.473 50.201C232.473 52.217 231.864 53.414 230.646 53.792C228.126 54.674 225.354 55.178 222.33 55.304C221.532 58.832 219.957 61.667 217.605 63.809C215.253 65.909 212.586 66.959 209.604 66.959C207.084 66.959 204.921 66.35 203.115 65.132C201.351 63.914 200.007 62.297 199.083 60.281C198.159 58.265 197.697 56.081 197.697 53.729C197.697 50.537 198.306 47.702 199.524 45.224C200.742 42.704 202.422 40.751 204.564 39.365C206.706 37.937 209.079 37.223 211.683 37.223C214.875 37.223 217.437 38.336 219.369 40.562C221.343 42.746 222.498 45.455 222.834 48.689C224.808 48.563 227.16 48.143 229.89 47.429C230.226 47.345 230.52 47.303 230.772 47.303ZM210.108 60.281C211.452 60.281 212.607 59.735 213.573 58.643C214.581 57.551 215.253 55.976 215.589 53.918C214.287 53.036 213.279 51.881 212.565 50.453C211.893 49.025 211.557 47.513 211.557 45.917C211.557 45.245 211.62 44.573 211.746 43.901H211.431C209.751 43.901 208.344 44.72 207.21 46.358C206.118 47.954 205.572 50.222 205.572 53.162C205.572 55.472 206.013 57.236 206.895 58.454C207.819 59.672 208.89 60.281 210.108 60.281Z" fill="#FA541C"/>
<path d="M233.618 66.959C231.644 66.959 230.048 66.161 228.83 64.565C227.654 62.927 227.066 60.68 227.066 57.824C227.066 54.674 227.276 51.797 227.696 49.193C228.116 46.547 228.809 43.754 229.775 40.814C230.195 39.554 230.783 38.651 231.539 38.105C232.295 37.559 233.492 37.286 235.13 37.286C236.054 37.286 236.684 37.433 237.02 37.727C237.398 38.021 237.587 38.462 237.587 39.05C237.587 39.386 237.356 40.52 236.894 42.452C236.474 44.006 236.138 45.413 235.886 46.673C235.046 51.083 234.626 54.023 234.626 55.493C234.626 56.375 234.731 57.005 234.941 57.383C235.151 57.719 235.487 57.887 235.949 57.887C236.579 57.887 237.377 57.257 238.343 55.997C239.309 54.695 240.317 52.763 241.367 50.201C242.459 47.597 243.488 44.468 244.454 40.814C244.79 39.554 245.294 38.651 245.966 38.105C246.68 37.559 247.73 37.286 249.116 37.286C250.04 37.286 250.691 37.538 251.069 38.042C251.489 38.504 251.699 39.218 251.699 40.184C251.699 41.234 251.615 42.41 251.447 43.712C251.279 44.972 251.09 46.274 250.88 47.618C250.46 50.306 250.124 52.763 249.872 54.989C249.62 57.173 249.494 59.672 249.494 62.486C249.494 64.082 249.158 65.237 248.486 65.951C247.856 66.623 246.806 66.959 245.336 66.959C243.782 66.959 242.69 66.56 242.06 65.762C241.472 64.922 241.178 63.326 241.178 60.974C241.178 60.512 241.22 59.483 241.304 57.887C240.59 60.827 239.519 63.074 238.091 64.628C236.705 66.182 235.214 66.959 233.618 66.959Z" fill="#FA541C"/>
</svg>
