<svg xmlns="http://www.w3.org/2000/svg" width="114" height="40" fill="none"><path fill="#212231" d="M11.874 26.627c-2.239 0-4.186-.404-5.842-1.212-1.656-.826-2.926-1.99-3.81-3.494-.884-1.502-1.326-3.25-1.326-5.24 0-2.762.517-5.213 1.552-7.355C3.5 7.186 4.922 5.532 6.709 4.367c1.788-1.183 3.773-1.775 5.956-1.775 2.032 0 3.575.526 4.628 1.578 1.054 1.033 1.58 2.405 1.58 4.114 0 1.146-.206 2.066-.62 2.761-.395.695-.97 1.043-1.722 1.043-.527 0-.94-.122-1.242-.366-.3-.245-.451-.602-.451-1.071 0-.17.037-.48.113-.93.112-.564.169-1.014.169-1.353 0-1.709-.913-2.564-2.738-2.564-1.242 0-2.427.404-3.556 1.212-1.129.808-2.041 2-2.737 3.578-.697 1.56-1.045 3.42-1.045 5.58 0 2.253.63 4 1.891 5.24 1.26 1.221 3.124 1.832 5.588 1.832 1.223 0 2.456-.15 3.698-.451 1.26-.32 2.653-.799 4.177-1.437.282-.113.517-.17.705-.17.301 0 .527.114.678.339.15.225.225.517.225.873 0 1.146-.62 1.992-1.862 2.536a19.95 19.95 0 0 1-4.177 1.296c-1.43.263-2.794.395-4.093.395Z"/><path fill="#212231" d="M33.91 17.836c.245 0 .433.122.565.366.132.244.197.554.197.93 0 .902-.272 1.437-.818 1.606-1.129.395-2.37.62-3.725.676-.358 1.578-1.064 2.846-2.117 3.804-1.054.94-2.249 1.409-3.585 1.409-1.128 0-2.097-.272-2.907-.817a5.231 5.231 0 0 1-1.806-2.17 6.94 6.94 0 0 1-.62-2.93c0-1.428.272-2.696.818-3.804.545-1.127 1.298-2 2.258-2.62a5.633 5.633 0 0 1 3.189-.958c1.43 0 2.578.497 3.443 1.493.884.977 1.402 2.188 1.552 3.635.885-.057 1.938-.244 3.161-.564.15-.037.283-.056.395-.056Zm-9.257 5.804c.602 0 1.12-.244 1.553-.732.451-.489.752-1.193.903-2.114a4 4 0 0 1-1.355-1.55 4.7 4.7 0 0 1-.452-2.028c0-.3.029-.601.085-.902h-.141c-.753 0-1.383.367-1.891 1.1-.49.713-.734 1.727-.734 3.042 0 1.034.198 1.822.593 2.367.414.545.894.817 1.44.817Z"/><path fill="#212231" d="M35.721 26.627c-1.166 0-2.097-.423-2.794-1.268-.696-.846-1.044-1.954-1.044-3.325 0-1.503.348-2.921 1.044-4.255.697-1.352 1.618-2.432 2.766-3.24 1.167-.826 2.4-1.24 3.698-1.24.413 0 .686.085.818.254.15.15.273.432.367.845.395-.075.809-.113 1.242-.113.922 0 1.383.33 1.383.987 0 .394-.142 1.333-.424 2.817-.433 2.16-.649 3.663-.649 4.509 0 .281.066.507.198.676.15.169.338.253.564.253.358 0 .79-.225 1.298-.676.508-.47 1.195-1.22 2.06-2.254.227-.263.48-.395.763-.395.244 0 .432.113.564.339.15.225.226.535.226.93 0 .75-.179 1.333-.536 1.746-.772.958-1.59 1.766-2.456 2.424-.865.657-1.703.986-2.511.986-.621 0-1.195-.207-1.722-.62-.508-.432-.894-1.015-1.157-1.747-.979 1.578-2.211 2.367-3.697 2.367Zm1.017-2.846c.413 0 .809-.244 1.185-.733.376-.488.649-1.136.818-1.944l1.045-5.184c-.79.018-1.524.319-2.202.901-.658.564-1.185 1.315-1.58 2.255a7.624 7.624 0 0 0-.593 2.986c0 .582.113 1.014.339 1.296.244.282.574.423.987.423Z"/><path fill="#212231" d="M50.898 26.627c-1.844 0-3.283-.517-4.318-1.55-1.016-1.052-1.524-2.433-1.524-4.142 0-1.521.3-2.855.903-4.001.602-1.146 1.383-2.029 2.342-2.649.96-.62 1.967-.93 3.02-.93 1.035 0 1.835.31 2.4.93.583.601.874 1.381.874 2.339 0 .789-.179 1.456-.536 2-.339.545-.79.818-1.355.818-.357 0-.649-.085-.875-.254-.207-.169-.31-.404-.31-.704 0-.132.019-.282.056-.451.038-.17.066-.291.085-.367.094-.281.141-.544.141-.788 0-.245-.066-.433-.198-.564-.112-.131-.282-.197-.508-.197-.432 0-.837.197-1.213.591-.377.376-.677.893-.903 1.55a6.643 6.643 0 0 0-.339 2.17c0 2.179.95 3.268 2.85 3.268.772 0 1.6-.253 2.484-.76.903-.526 1.788-1.306 2.653-2.34.226-.262.48-.394.762-.394.245 0 .433.113.565.338.15.226.225.536.225.93 0 .714-.178 1.297-.536 1.747a9.264 9.264 0 0 1-3.189 2.536c-1.223.582-2.408.874-3.556.874Z"/><path fill="#212231" d="M65.889 13.356c.602 0 1.053.16 1.355.479.32.3.48.751.48 1.352 0 .489-.104 1.409-.311 2.761a61.388 61.388 0 0 0-.452 3.269 31.067 31.067 0 0 0-.169 3.41c0 .713-.15 1.23-.452 1.55-.282.3-.752.45-1.41.45-.622 0-1.073-.16-1.355-.48-.283-.318-.424-.797-.424-1.436 0-.752.132-1.991.395-3.72.226-1.502.339-2.46.339-2.873 0-.301-.103-.451-.31-.451-.245 0-.593.32-1.045.958-.451.62-.903 1.446-1.354 2.48a20.207 20.207 0 0 0-1.101 3.268c-.207.883-.452 1.484-.734 1.803-.263.3-.687.45-1.27.45s-1.016-.206-1.298-.619c-.264-.432-.442-1.09-.536-1.972-.095-.883-.142-2.18-.142-3.889 0-2.893.292-5.907.875-9.044.602-3.137 1.477-5.767 2.625-7.89C60.762 1.071 62.154 0 63.772 0c.866 0 1.562.376 2.089 1.127.545.733.818 1.69.818 2.874 0 1.897-.555 3.87-1.665 5.917-1.11 2.029-2.916 4.405-5.419 7.129a52.32 52.32 0 0 0-.084 3.015c.62-1.597 1.307-2.893 2.06-3.889.771-1.014 1.524-1.737 2.258-2.17.752-.431 1.439-.647 2.06-.647Zm-2.71-10.567c-.338 0-.715.489-1.129 1.466-.413.958-.818 2.263-1.213 3.916a54.257 54.257 0 0 0-.931 5.354 19.776 19.776 0 0 0 2.878-4.48c.772-1.616 1.157-3.08 1.157-4.396 0-.601-.065-1.061-.197-1.38-.132-.32-.32-.48-.565-.48Z"/><path fill="#FA541C" d="M89.254 23.495c.113-.038.283-.056.508-.056.64 0 .96.413.96 1.24 0 .45-.103.835-.31 1.155-.189.3-.49.488-.904.563-1.712.32-3.396.676-5.051 1.07l-.085.677c-.527 3.7-1.58 6.434-3.161 8.2-1.562 1.784-3.519 2.676-5.87 2.676-1.562 0-2.776-.385-3.641-1.155-.847-.752-1.27-1.719-1.27-2.902 0-1.973.884-3.729 2.653-5.27 1.768-1.54 4.45-2.902 8.043-4.085l.565-3.973c.075-.45.169-1.052.282-1.803-.885 2.33-2.013 4.067-3.387 5.212-1.373 1.146-2.907 1.72-4.6 1.72-1.618 0-2.85-.49-3.698-1.466-.846-.995-1.27-2.273-1.27-3.832 0-.695.076-1.456.226-2.282.15-.846.386-1.982.706-3.41.282-1.296.489-2.329.62-3.099.151-.77.227-1.456.227-2.057 0-.902-.349-1.352-1.045-1.352-.545 0-1.194.272-1.947.817-.734.526-1.515 1.343-2.343 2.451-.263.357-.555.535-.875.535-.263 0-.498-.122-.705-.366a1.467 1.467 0 0 1-.282-.873c0-.583.263-1.24.79-1.973 1.919-2.63 4.168-3.944 6.745-3.944 1.148 0 2.042.347 2.681 1.042.659.695.988 1.719.988 3.071 0 .977-.094 1.982-.282 3.015a71.789 71.789 0 0 1-.79 3.889c-.226.939-.395 1.7-.508 2.282-.113.564-.17 1.033-.17 1.409 0 .958.17 1.644.508 2.057.339.413.932.62 1.778.62 1.016 0 2.051-.554 3.105-1.663 1.072-1.127 2.032-2.827 2.879-5.1.865-2.273 1.486-5.053 1.862-8.34.094-.827.31-1.409.65-1.747.338-.357.827-.535 1.467-.535 1.317 0 1.976.657 1.976 1.972 0 .225-.01.404-.028.535A875.739 875.739 0 0 1 86.15 16a227.703 227.703 0 0 1-.621 4.17c-.207 1.428-.414 2.874-.621 4.34a61.864 61.864 0 0 1 4.346-1.015Zm-8.551 5.072c-4.553 1.578-6.83 3.493-6.83 5.748 0 .526.16.958.48 1.296.338.357.809.535 1.41.535 2.616 0 4.253-2.46 4.912-7.382l.028-.197Z"/><path fill="#FA541C" d="M103.382 21.156c.245 0 .433.122.565.367.132.244.198.554.198.93 0 .9-.273 1.436-.819 1.605-1.129.395-2.371.62-3.725.677-.358 1.578-1.064 2.846-2.117 3.803-1.054.94-2.249 1.41-3.584 1.41-1.13 0-2.098-.273-2.907-.818a5.23 5.23 0 0 1-1.807-2.17 6.938 6.938 0 0 1-.62-2.93c0-1.427.272-2.695.818-3.804.546-1.127 1.298-2 2.258-2.62a5.633 5.633 0 0 1 3.189-.958c1.43 0 2.578.498 3.443 1.493.884.977 1.402 2.189 1.552 3.635.885-.056 1.938-.244 3.161-.564.151-.037.283-.056.395-.056Zm-9.257 5.805c.602 0 1.12-.244 1.553-.733.451-.488.752-1.193.903-2.113a4 4 0 0 1-1.355-1.55 4.7 4.7 0 0 1-.452-2.029c0-.3.029-.6.085-.901h-.141c-.753 0-1.383.366-1.891 1.098-.49.714-.734 1.729-.734 3.044 0 1.033.198 1.822.593 2.366.414.545.894.818 1.44.818Z"/><path fill="#FA541C" d="M104.657 29.948c-.884 0-1.599-.357-2.145-1.071-.526-.733-.79-1.738-.79-3.015 0-1.409.094-2.696.282-3.86.189-1.184.499-2.433.932-3.748.188-.563.451-.967.79-1.211.339-.245.875-.367 1.609-.367.414 0 .696.066.846.198.17.131.254.328.254.591 0 .15-.103.658-.31 1.522a29.595 29.595 0 0 0-.452 1.888c-.376 1.972-.564 3.287-.564 3.944 0 .395.047.677.141.846.094.15.245.225.452.225.282 0 .639-.282 1.072-.845.433-.583.884-1.447 1.355-2.593.489-1.164.95-2.564 1.383-4.198.15-.563.376-.967.677-1.211.32-.245.79-.367 1.411-.367.414 0 .706.113.875.338.188.207.282.526.282.958 0 .47-.037.996-.113 1.578a72.214 72.214 0 0 1-.254 1.747 79.52 79.52 0 0 0-.451 3.297 29.486 29.486 0 0 0-.169 3.353c0 .714-.151 1.23-.452 1.55-.282.3-.753.45-1.411.45-.696 0-1.186-.178-1.468-.535-.263-.376-.395-1.09-.395-2.141 0-.207.019-.667.057-1.381-.32 1.315-.8 2.32-1.44 3.015-.621.695-1.289 1.043-2.004 1.043Z"/></svg>