<svg width="14" height="19" viewBox="0 0 14 19" fill="none" xmlns="http://www.w3.org/2000/svg">
<path d="M12 8.25H10.75V4.5C10.75 3.50544 10.3549 2.55161 9.65165 1.84835C8.94839 1.14509 7.99456 0.75 7 0.75C6.00544 0.75 5.05161 1.14509 4.34835 1.84835C3.64509 2.55161 3.25 3.50544 3.25 4.5V8.25H2C1.66848 8.25 1.35054 8.3817 1.11612 8.61612C0.881696 8.85054 0.75 9.16848 0.75 9.5V17C0.75 17.3315 0.881696 17.6495 1.11612 17.8839C1.35054 18.1183 1.66848 18.25 2 18.25H12C12.3315 18.25 12.6495 18.1183 12.8839 17.8839C13.1183 17.6495 13.25 17.3315 13.25 17V9.5C13.25 9.16848 13.1183 8.85054 12.8839 8.61612C12.6495 8.3817 12.3315 8.25 12 8.25ZM4.5 4.5C4.5 3.83696 4.76339 3.20107 5.23223 2.73223C5.70107 2.26339 6.33696 2 7 2C7.66304 2 8.29893 2.26339 8.76777 2.73223C9.23661 3.20107 9.5 3.83696 9.5 4.5V8.25H4.5V4.5ZM12 17H2V9.5H12V17Z" fill="#919EAB"/>
</svg>
