<svg width="20" height="20" viewBox="0 0 20 20" fill="none" xmlns="http://www.w3.org/2000/svg">
<path d="M7.45 15.5876C8.50571 15.5942 9.55224 15.3912 10.5289 14.9902C11.5055 14.5893 12.3928 13.9984 13.1393 13.2519C13.8858 12.5054 14.4767 11.6181 14.8777 10.6414C15.2786 9.66481 15.4816 8.61828 15.475 7.56257C15.475 7.43757 15.475 7.31882 15.475 7.19382C16.0222 6.79288 16.4959 6.30018 16.875 5.73757C16.3597 5.96294 15.8144 6.11242 15.2563 6.18132C15.8481 5.82868 16.2921 5.27361 16.5063 4.61882C15.9547 4.94972 15.3499 5.18234 14.7188 5.30632C14.2937 4.85343 13.7313 4.55323 13.1184 4.45219C12.5056 4.35114 11.8765 4.45488 11.3286 4.74736C10.7806 5.03983 10.3444 5.50473 10.0873 6.07012C9.83014 6.63551 9.76652 7.26988 9.90625 7.87507C8.78502 7.82004 7.68794 7.52946 6.68647 7.02226C5.685 6.51507 4.80159 5.80262 4.09375 4.93132C3.73683 5.55081 3.62864 6.28277 3.7911 6.97902C3.95356 7.67527 4.37452 8.28377 4.96875 8.68132C4.53038 8.66441 4.10216 8.54451 3.71875 8.33132V8.36257C3.71485 9.00997 3.93295 9.63914 4.33669 10.1452C4.74043 10.6513 5.30542 11.0038 5.9375 11.1438C5.52977 11.2535 5.10268 11.2706 4.6875 11.1938C4.87049 11.7459 5.2198 12.2279 5.68753 12.5737C6.15526 12.9194 6.71849 13.112 7.3 13.1251C6.30576 13.9254 5.07006 14.3659 3.79375 14.3751C3.56997 14.3686 3.34672 14.3498 3.125 14.3188C4.41685 15.1419 5.91825 15.5758 7.45 15.5688" fill="#212B36"/>
</svg>